<?xml version="1.0" encoding="UTF-8" standalone="no"?>
<svg
   xmlns:dc="http://purl.org/dc/elements/1.1/"
   xmlns:cc="http://creativecommons.org/ns#"
   xmlns:rdf="http://www.w3.org/1999/02/22-rdf-syntax-ns#"
   xmlns:svg="http://www.w3.org/2000/svg"
   xmlns="http://www.w3.org/2000/svg"
   xmlns:sodipodi="http://sodipodi.sourceforge.net/DTD/sodipodi-0.dtd"
   xmlns:inkscape="http://www.inkscape.org/namespaces/inkscape"
   width="215"
   height="130"
   id="svg1334"
   sodipodi:version="0.32"
   inkscape:version="1.0.1 (3bc2e813f5, 2020-09-07)"
   sodipodi:docname="Bandera_CNT-FAI.svg"
   version="1.1">
  <metadata
     id="metadata1343">
    <rdf:RDF>
      <cc:Work
         rdf:about="">
        <dc:format>image/svg+xml</dc:format>
        <dc:type
           rdf:resource="http://purl.org/dc/dcmitype/StillImage" />
      </cc:Work>
    </rdf:RDF>
  </metadata>
  <defs
     id="defs1341" />
  <sodipodi:namedview
     inkscape:window-height="2066"
     inkscape:window-width="3840"
     inkscape:pageshadow="2"
     inkscape:pageopacity="0.0"
     borderopacity="1.0"
     bordercolor="#666666"
     pagecolor="#ffffff"
     id="base"
     inkscape:zoom="8.2024388"
     inkscape:cx="118.57514"
     inkscape:cy="47.166725"
     inkscape:window-x="-11"
     inkscape:window-y="-11"
     inkscape:current-layer="svg1334"
     inkscape:document-rotation="0"
     showgrid="false"
     inkscape:window-maximized="1" />
  <rect
     id="rect1336"
     height="130"
     width="215"
     y="-130"
     x="0"
     style="fill:#000000"
     transform="scale(1,-1)" />
  <path
     style="fill:#ff0000;fill-opacity:1"
     id="path1338"
     d="M 0,130 H 215 L 0,0 Z" />
  <path
     style="font-size:17.66186142px;font-style:normal;font-variant:normal;font-weight:normal;font-stretch:normal;text-align:start;line-height:125%;writing-mode:lr-tb;text-anchor:start;fill:#ffffff;fill-opacity:1;stroke:none;stroke-width:1px;stroke-linecap:butt;stroke-linejoin:miter;stroke-opacity:1;font-family:Helvetica"
     d="M 166.59282,9.7962878 C 169.36832,9.7962878 172.14383,9.7962878 174.91934,9.7962878 C 174.91934,10.342391 174.91934,10.888495 174.91934,11.434598 C 172.68586,11.434598 170.45238,11.434598 168.2189,11.434598 C 168.2189,12.787721 168.2189,14.140844 168.2189,15.493966 C 170.18274,15.493966 172.14656,15.493966 174.11039,15.493966 C 174.11039,16.0249 174.11039,16.555834 174.11039,17.086768 C 172.14656,17.086768 170.18274,17.086768 168.2189,17.086768 C 168.2189,19.113419 168.2189,21.140068 168.2189,23.166719 C 167.67687,23.166719 167.13484,23.166719 166.59282,23.166719 C 166.59282,18.709909 166.59282,14.253098 166.59282,9.7962878 z M 176.82324,21.182544 C 177.39251,21.182544 177.96178,21.182544 178.53105,21.182544 C 178.53105,21.843936 178.53105,22.505327 178.53105,23.166719 C 177.96178,23.166719 177.39251,23.166719 176.82324,23.166719 C 176.82324,22.505327 176.82324,21.843936 176.82324,21.182544 z M 187.47041,17.687481 C 186.86301,15.718475 186.25561,13.749469 185.64822,11.780465 C 185.00269,13.749469 184.35716,15.718475 183.71163,17.687481 C 184.96455,17.687481 186.21748,17.687481 187.47041,17.687481 z M 184.7984,9.7962878 C 185.41125,9.7962878 186.02409,9.7962878 186.63694,9.7962878 C 188.0887,14.253098 189.54047,18.709909 190.99223,23.166719 C 190.39844,23.166719 189.80466,23.166719 189.21089,23.166719 C 188.80505,21.8318 188.39921,20.49688 187.99338,19.161962 C 186.41087,19.161962 184.82837,19.161962 183.24586,19.161962 C 182.81278,20.49688 182.37971,21.8318 181.94664,23.166719 C 181.39099,23.166719 180.83534,23.166719 180.27969,23.166719 C 181.78593,18.709909 183.29216,14.253098 184.7984,9.7962878 z M 192.64283,21.182544 C 193.21209,21.182544 193.78135,21.182544 194.35061,21.182544 C 194.35061,21.843936 194.35061,22.505327 194.35061,23.166719 C 193.78135,23.166719 193.21209,23.166719 192.64283,23.166719 C 192.64283,22.505327 192.64283,21.843936 192.64283,21.182544 z M 197.49656,9.7962878 C 198.04404,9.7962878 198.59151,9.7962878 199.13899,9.7962878 C 199.13899,14.253098 199.13899,18.709909 199.13899,23.166719 C 198.59151,23.166719 198.04404,23.166719 197.49656,23.166719 C 197.49656,18.709909 197.49656,14.253098 197.49656,9.7962878 z M 201.92538,21.182544 C 202.49464,21.182544 203.06391,21.182544 203.63317,21.182544 C 203.63317,21.843936 203.63317,22.505327 203.63317,23.166719 C 203.06391,23.166719 202.49464,23.166719 201.92538,23.166719 C 201.92538,22.505327 201.92538,21.843936 201.92538,21.182544 z "
     id="text2196" />
  <path
     style="font-size:16.44516754px;font-style:normal;font-weight:normal;line-height:125%;fill:#ffffff;fill-opacity:1;stroke:none;stroke-width:1px;stroke-linecap:butt;stroke-linejoin:miter;stroke-opacity:1;font-family:Bitstream Vera Sans"
     d="M 19.699072,108.58495 C 19.217167,108.44134 18.321603,108.90483 18.160526,108.29037 C 17.603589,105.75 14.497227,105.29278 12.888653,106.82149 C 11.314178,108.38239 11.278626,111.0921 11.706689,113.23437 C 12.047819,114.98008 13.504589,116.31226 15.112535,116.17566 C 16.845197,116.3134 18.139214,114.55139 18.336735,112.74237 C 18.76364,112.87647 19.751698,112.45546 19.776884,112.98693 C 19.537273,115.53811 17.52249,117.70694 15.208264,117.66024 C 12.880934,117.91702 10.61781,116.01475 10.18695,113.42086 C 9.5654519,110.53257 10.002637,106.89055 12.450888,105.23926 C 14.622335,103.8767 17.950699,104.25235 19.226238,106.90053 C 19.489287,107.41503 19.652774,107.99344 19.699072,108.58495 z M 21.787991,115.48559 C 22.315266,115.48559 22.842541,115.48559 23.369815,115.48559 C 23.369815,116.10466 23.369815,116.72373 23.369815,117.3428 C 22.842541,117.3428 22.315266,117.3428 21.787991,117.3428 C 21.787991,116.72373 21.787991,116.10466 21.787991,115.48559 z M 25.94312,104.82793 C 26.535989,104.82793 27.128858,104.82793 27.721727,104.82793 C 29.59368,108.20725 31.465634,111.58658 33.337587,114.96591 C 33.337587,111.58658 33.337587,108.20725 33.337587,104.82793 C 33.771932,104.93896 34.609429,104.59619 34.76804,105.01758 C 34.76804,109.12599 34.76804,113.2344 34.76804,117.3428 C 34.205445,117.3428 33.642852,117.3428 33.080258,117.3428 C 31.180553,113.96632 29.280848,110.58983 27.381143,107.21334 C 27.381143,110.58983 27.381143,113.96632 27.381143,117.3428 C 26.936268,117.2724 26.245075,117.47925 25.94312,117.24797 C 25.94312,113.10796 25.94312,108.96795 25.94312,104.82793 z M 37.288365,115.48559 C 37.81564,115.48559 38.342915,115.48559 38.87019,115.48559 C 38.87019,116.10466 38.87019,116.72373 38.87019,117.3428 C 38.342915,117.3428 37.81564,117.3428 37.288365,117.3428 C 37.288365,116.72373 37.288365,116.10466 37.288365,115.48559 z M 49.534268,104.82793 C 49.408846,105.27854 49.81145,106.32351 49.281536,106.31881 C 48.116971,106.31881 46.952405,106.31881 45.787838,106.31881 C 45.787838,109.99347 45.787838,113.66814 45.787838,117.3428 C 45.278224,117.3428 44.768609,117.3428 44.258993,117.3428 C 44.258993,113.66814 44.258993,109.99347 44.258993,106.31881 C 43.010184,106.31881 41.761374,106.31881 40.512564,106.31881 C 40.637986,105.8682 40.235382,104.82324 40.765295,104.82793 C 43.688286,104.82793 46.611277,104.82793 49.534268,104.82793 z M 51.063116,115.48559 C 51.590391,115.48559 52.117666,115.48559 52.644941,115.48559 C 52.644941,116.10466 52.644941,116.72373 52.644941,117.3428 C 52.117666,117.3428 51.590391,117.3428 51.063116,117.3428 C 51.063116,116.72373 51.063116,116.10466 51.063116,115.48559 z "
     id="text3073" />
</svg>
